<svg viewBox="0 0 128 128" xmlns="http://www.w3.org/2000/svg" role="img" aria-label="member role">
  <defs>
    <radialGradient id="rg-member" cx="0.5" cy="0.34" r="0.78"><stop offset="0" stop-color="#45af8c"></stop><stop offset="1" stop-color="#0e875e"></stop></radialGradient>
    <radialGradient id="rh-member" cx="0.5" cy="0.5" r="0.5"><stop offset="0.82" stop-color="#70c2a6" stop-opacity="0"></stop><stop offset="0.92" stop-color="#70c2a6" stop-opacity="0.7"></stop><stop offset="1" stop-color="#70c2a6" stop-opacity="0"></stop></radialGradient>
  </defs>
  <circle cx="64" cy="64" r="62" fill="url(#rh-member)"></circle>
  <circle cx="64" cy="64" r="52" fill="url(#rg-member)"></circle>
  <circle cx="64" cy="64" r="52" fill="none" stroke="#ffffff" stroke-width="1.4" opacity="0.4"></circle>
  <g transform="translate(64 64) scale(1.5) translate(-64 -64)"><svg x="32" y="32" width="64" height="64" viewBox="-20 -5 1064 1064" style="fill:#ffffff"><path d="M819.2 729.088V757.76c0 33.792-27.648 61.44-61.44 61.44H266.24c-33.792 0-61.44-27.648-61.44-61.44v-28.672c0-74.752 87.04-119.808 168.96-155.648 3.072-1.024 5.12-2.048 8.192-4.096 6.144-3.072 13.312-3.072 19.456 1.024C434.176 591.872 472.064 604.16 512 604.16c39.936 0 77.824-12.288 110.592-32.768 6.144-4.096 13.312-4.096 19.456-1.024 3.072 1.024 5.12 2.048 8.192 4.096 81.92 34.816 168.96 79.872 168.96 154.624z M359.424 373.76a168.96 152.576 90 1 0 305.152 0 168.96 152.576 90 1 0-305.152 0Z"></path></svg></g>
</svg>