<?xml version="1.0" encoding="iso-8859-1"?>
<!-- Uploaded to: SVG Repo, www.svgrepo.com, Generator: SVG Repo Mixer Tools -->
<svg fill="#000000" height="800px" width="800px" version="1.1" id="Layer_1" xmlns="http://www.w3.org/2000/svg" xmlns:xlink="http://www.w3.org/1999/xlink" 
	 viewBox="0 0 512.002 512.002" xml:space="preserve">
<g>
	<g>
		<g>
			<path d="M509.984,238.166c-4.096-17.323-13.867-31.829-26.773-39.808c-9.472-5.824-20.203-7.68-30.357-5.333
				c-0.893,0.217-2.297,0.646-3.985,1.199c-18.594-44.893-47.654-77.878-84.582-99.977c-3.132-1.874-6.294-3.643-9.479-5.328
				l6.225-16.75c4.105-11.044-1.521-23.324-12.565-27.429c-11.044-4.105-23.324,1.521-27.429,12.565l-5.786,15.568
				c-7.173-2.11-14.393-3.847-21.627-5.222c-5.805-1.104-11.257-1.921-16.291-2.501V42.668c0-11.782-9.551-21.333-21.333-21.333
				s-21.333,9.551-21.333,21.333v23.202c-11.592,1.744-24.289,4.779-37.604,9.455l-5.713-17.291
				c-3.696-11.187-15.762-17.26-26.949-13.563c-11.187,3.696-17.26,15.762-13.563,26.949l7.226,21.87
				c-3.667,2.116-7.344,4.363-11.023,6.755c-7.646,4.972-14.945,10.398-21.889,16.27l-24.739-24.739
				c-8.331-8.331-21.839-8.331-30.17,0s-8.331,21.839,0,30.17l25.262,25.262c-20.352,25.81-35.724,57.463-45.085,95.342
				c-5.289-0.828-6.856-0.829-7.752-0.829C17.536,241.522,0,265.031,0,298.674c0,33.621,17.536,57.131,42.667,57.131
				c1.617,0,4.128-0.249,7.112-0.645c6.084,22.505,16.034,43.765,29.761,62.697c35.463,48.866,90.324,72.811,176.461,72.811
				c82.41,0,138.218-29.267,176.455-81.955c21.878-30.174,34.185-66.248,36.484-103.867c1.169,0.035,2.195,0.052,3.093,0.052
				c4.267,0,5.739-0.363,7.275-0.725C503.904,298.305,517.365,269.313,509.984,238.166z M383.716,203.972
				c-1.134,21.185-5.8,29.898-16.509,31.304c-45.984,6.046-64.265-7.813-67.856-32.947
				C322.59,188.091,354.097,188.335,383.716,203.972z M230.361,110.557c1.559-0.358,3.067-0.686,4.525-0.987
				c1.419,10.406,10.318,18.431,21.113,18.431c11.366,0,20.629-8.896,21.271-20.101c7.332,0.971,15.12,2.542,23.17,4.824
				l-0.438,1.179c-4.105,11.044,1.521,23.324,12.565,27.429c10.852,4.033,22.892-1.332,27.202-11.998
				c0.869,0.5,1.738,1.006,2.607,1.526c10.794,6.459,20.737,14.106,29.756,23.012c-36.25-9.63-73.268-4.144-102.104,16.796h-28.057
				c-24.315-17.657-54.445-24.312-85.032-20.191c-0.499-1.232-1.126-2.423-1.864-3.563c4.869-3.968,9.944-7.668,15.223-11.1
				c0.499-0.325,1.004-0.635,1.505-0.954c3.761,11.079,15.759,17.074,26.889,13.396c11.187-3.696,17.26-15.762,13.563-26.949
				l-1.681-5.086C217.138,113.96,223.749,112.076,230.361,110.557z M212.649,202.329c-3.591,25.134-21.871,38.993-67.852,32.947
				c-10.712-1.406-15.379-10.119-16.513-31.304C157.903,188.335,189.41,188.091,212.649,202.329z M397.918,383.66
				c-30.309,41.764-73.36,64.341-141.918,64.341c-73.295,0-115.111-18.252-141.924-55.197
				c-13.379-18.452-22.196-39.927-26.224-62.755c-0.029-0.888-0.093-1.782-0.236-2.682c-2.987-18.773-2.837-37.824,0.427-56.555
				c0.078-0.45,0.117-0.896,0.166-1.344c0.026-0.145,0.048-0.289,0.075-0.434c1.479-7.993,3.231-15.657,5.245-23.003
				c7.687,17.614,21.694,28.394,45.71,31.547c69.442,9.131,106.166-20.342,114.766-64.245h3.99
				c8.6,43.903,45.324,73.376,114.77,64.245c25.522-3.351,39.744-15.311,47.085-34.94c1.524,5.835,2.807,11.559,3.862,17.266
				c1.259,6.805,2.069,14.187,2.539,23.211c0.043,0.887,0.158,1.752,0.306,2.607C427.829,321.417,418.014,355.943,397.918,383.66z"
				/>
			<path d="M341.333,298.668H170.667c-11.782,0-21.333,9.551-21.333,21.333c0,60.934,45.733,106.667,106.667,106.667
				s106.667-45.733,106.667-106.667C362.667,308.219,353.115,298.668,341.333,298.668z M256,384.001
				c-29.766,0-52.701-16.906-60.809-42.667h121.618C308.701,367.095,285.766,384.001,256,384.001z"/>
		</g>
	</g>
</g>
</svg>