<svg xmlns="http://www.w3.org/2000/svg" width="1598.67" height="1692" preserveAspectRatio="none" style="display:block" viewBox="241.33 129.33 1598.67 1692"><defs><linearGradient id="b" x1="1774.23" x2="879.47" y1="1615.27" y2="833.04" gradientUnits="userSpaceOnUse"><stop class="stop0" offset="0" stop-color="#541cff"/><stop class="stop1" offset="1" stop-color="#0081fe" stop-opacity=".99"/></linearGradient><linearGradient id="a" x1="1005.95" x2="278.9" y1="956.9" y2="371.02" gradientUnits="userSpaceOnUse"><stop class="stop0" offset="0" stop-color="#006cff"/><stop class="stop1" offset="1" stop-color="#00bafd"/></linearGradient></defs><path fill="url(#a)" d="M337.75 1651.69c-14.25-12.88-36.98-64.23-44.44-83.25-20.1-51.23-18.33-99.49-18.6-153.65l-.4-126.52-.07-373.2-.01-297.57-.02-93.63c.03-70.46 2.44-113.87 34.31-179.02a329 329 0 0 1 190.04-165.63c51.96-17.69 83.5-17.33 137.17-17.35l109.16.1 335.77.02 281.52-.01 92.8-.17c13.19.05 34.58-.3 47.15.78 32.25 2.79 78.12 13.42 107.09 27.68-11.48-.54-20.72-7.44-30.75-9.91-23.54-5.8-68.95-19.36-92.21-16.43 3.94 7.28 24.66 7.4 31.72 4.9 3.2 1.6 2.2.4 3.82 3.07-.59 3.62-.92 3.61-3.18 6.4-7.05 3.73-9.29-1.85-17.44.08-5.27 1.26-27.69 8.3-30.77 6.94-2.88 1.16-3.22.68-6.25.32-3.09 1.53-3.88 2.65-6.58 2.16 3.19-5.13 8.97-6.23 8.51-9.14-2.91-.47-3.34-.89-6.06-.2l-.3 2.23c-7.5.16-6.61 2.07-13.53 5.03l-1.27 2.17c3.32 3.84 5.61.62 6.01 4.09-8.66 8.98-31.98 37.16-40.04 41.65-7.24 4.03-10.54 6.62-12.65 14.7-1.73 6.58-3.69 15.38.02 21.62 4.48 7.54 15.88 5.33 18.39 13.11-3.67 9.28-12.23 24.02-18.82 31.29-5.05.15-2.49-3.82-7.58-2.19-3.65 4.68-.71 7.35-3.78 11.66l-2-1.66-10.92 9.41c-.62 18.03-1.39 31-2.91 48.7 2.39 1.83 4.89 3.86 7.42 5.47-4 18.5-12.32 12.69-23.39 20.05-10.39 6.9-22.59 19.7-32.6 27.82-8.06 6.55-37.59 20.76-29.92 33.82 4.15.88 2.7-.19 5.03 2.48-.23 1.8-.17 1.72-.7 3.47l2.35.42c10.18-2.24 2.39-.69 5.9-4.63 2.76 1.75 2.3 1.89 5.31 2.37l1.02-1.96-1.39-4.02.86-1.55c3.73-.4 6.28-1.01 9.88.02.99 5.99-1.63.03-1.99 5.52 3.36 0 3.37.52 5.98-.9-2.66-2.96-2.14-1.34-2.44-4.67-.3.22 17.53-5.47 18.48-5.69 3.2.46 3.53 2.45 5.88 4.04 8.22 5.58 104.53-27.75 118.4-33.19 13.34-5.23 33.62-16.24 46.67-18.91 2.7-.56 5.33.26 7.42 2.06 2.36 2.04 3.52 4.21 3.5 7.36-.03 4.72-7.83 29.63-11.15 32.71-19.4 59.34-29.11 122.05-39.51 183.31a5871 5871 0 0 1-13.83 74.48c-7.53 40.14-10.76 71.38-26.13 109.05-31.04 76.06-88.19 114.09-168.12 124.18-21.28 4.23-41.68 3.66-63.11 7-33.17 5.15-95.48 1.17-112.89 36.02-6.95 18.96 16.93 28.48 29.89 31.51 40.61 9.49 81.74 9.04 122.96 5.87 24.1-1.85 45.33-7.07 68.76-11.71 2.49-.49 4.71 1.63 6.4 3.08 1.37 4.56-.3 8.58-2.62 12.58-64.6 111.46-162.98 203.47-288.53 240.04-53.75 15.66-106.5 20.93-162.47 15.99-12.62-.98-25.35-3.71-37.6-4.76-13.37 1.92-24.65-4.3-36.8-5.38-.59 5.7-.78 11.39-4.54 15.89-6.3 2.63-10.24 2.61-14.83-2.55l-.84-.01a79 79 0 0 1-7.14 9.17c-1.8 5.79.75 14.26.24 18.17-1 7.58-19.63 31.18-25.24 35-3.35-.13-3.37-.22-6.6-1.24-9.06 2.73-8.14 18.63-20.48 22.66-5.76 12.35-19.95 26.67-24.86 40.42-1.97 5.54 2.14 19.98-3.66 20.78-16.5 2.29-14.47 11.01-23.35 22.47-8.66 11.15-41.59 26.68-54.76 27.25-9.53 2.13-12.5 2.62-22.43 2.7-5.6 6.86-12.35 5.45-16.16 8.95-9.63 8.86-7.93 12.73-22.44 13.15l-1 .03c-2.42 2.07-1.76 1.88-3.2 3.39-6.04 6.31-13.03 10.21-20.19 15.92-7.95 6.34-18.6 20.99-27.62 24.82-2.2.93-10.96-.63-13.21-3.36a48 48 0 0 1-4.37-6.03l-1.08-1.64-.64-1c-3.3.08-1.98-.53-4.17 1.72-.57 5.97 1.25 9.72-.77 13.72-3.09 2.18-1.45 1.73-4.96 1.74-3.3-2.45-9-7.43-13.34-5.84-10.5 3.88-20.38 16.27-27.45 24.76-6.2 7.46 2.5 11.85 2.02 17.8-3.25 5.74-11.72 13.02-16.81 17.73-6.53 1.76-9.51 2.44-15.34-1.26-4.92-3.13-16.55-9.25-20.02-13.64l.45-1.96c-5.83-8.7-17.9-2.12-23.3-11.4l-1.86 4.58c-3.3-.62-16.23-3.4-17.95-5.46-.52-4.32.83-3.29-2.35-5.07l.78-.02 1.01 1.23-2.83-.62c-8.58 8.92.87 12.02-5.15 20.73-1.47 2.14-5.63-.94-7.5-2.08l-1.85.2c1.2 11.21 28.7 49.67 29.97 56.27"/><path fill="#fefefe" d="M1298.84 473.8c10.18-2.24 2.39-.69 5.9-4.63 2.76 1.75 2.3 1.89 5.31 2.37l1.02-1.96-1.39-4.02.86-1.55c3.73-.4 6.28-1.01 9.88.02.99 5.99-1.63.03-1.99 5.52 3.36 0 3.37.52 5.98-.9-2.66-2.96-2.14-1.34-2.44-4.67-.3.22 17.53-5.47 18.48-5.69 3.2.46 3.53 2.45 5.88 4.04 8.22 5.58 104.53-27.75 118.4-33.19 13.34-5.23 33.62-16.24 46.67-18.91 2.7-.56 5.33.26 7.42 2.06 2.36 2.04 3.52 4.21 3.5 7.36-.03 4.72-7.83 29.63-11.15 32.71-19.4 59.34-29.11 122.05-39.51 183.31a5871 5871 0 0 1-13.83 74.48c-7.53 40.14-10.76 71.38-26.13 109.05-31.04 76.06-88.19 114.09-168.12 124.18-21.28 4.23-41.68 3.66-63.11 7-33.17 5.15-95.48 1.17-112.89 36.02-6.95 18.96 16.93 28.48 29.89 31.51 40.61 9.49 81.74 9.04 122.96 5.87 24.1-1.85 45.33-7.07 68.76-11.71 2.49-.49 4.71 1.63 6.4 3.08 1.37 4.56-.3 8.58-2.62 12.58-64.6 111.46-162.98 203.47-288.53 240.04-53.75 15.66-106.5 20.93-162.47 15.99-12.62-.98-25.35-3.71-37.6-4.76-13.37 1.92-24.65-4.3-36.8-5.38-.59 5.7-.78 11.39-4.54 15.89-6.3 2.63-10.24 2.61-14.83-2.55l-.84-.01a79 79 0 0 1-7.14 9.17c-1.8 5.79.75 14.26.24 18.17-1 7.58-19.63 31.18-25.24 35-3.35-.13-3.37-.22-6.6-1.24-9.06 2.73-8.14 18.63-20.48 22.66-5.76 12.35-19.95 26.67-24.86 40.42-1.97 5.54 2.14 19.98-3.66 20.78-16.5 2.29-14.47 11.01-23.35 22.47-8.66 11.15-41.59 26.68-54.76 27.25l-3.44-.64c-6.23 1.15-10.15 2.21-15.85-.96-11.88-7.02-9.13-36.82-5.35-47.74 20.9-59.16 54-119.34 82.6-174.99 26.52-51.6 28.14-33.09 15.08-90.36-6.92-30.33-5.65-83.46-2.92-115.24 9.96-115.83 39.62-239.32 106.42-336.34 86.5-121.68 209.04-190.85 354.81-216.26 56.96-9.94 113.38-15 170.44-24.82z"/><path fill="#0073fd" d="M598.07 1480.99c16.7-5.31 36.46-10.39 50.02-21.96 14.59-12.45 28.32-42.24 38.55-59.19 13.97-23.16 73.7-115.01 90.4-125.56 10.53-6.66 35.46 2.1 47.33 4.72-13.37 1.92-24.65-4.3-36.8-5.38-.59 5.7-.78 11.39-4.54 15.89-6.3 2.63-10.24 2.61-14.83-2.55l-.84-.01a79 79 0 0 1-7.14 9.17c-1.8 5.79.75 14.26.24 18.17-1 7.58-19.63 31.18-25.24 35-3.35-.13-3.37-.22-6.6-1.24-9.06 2.73-8.14 18.63-20.48 22.66-5.76 12.35-19.95 26.67-24.86 40.42-1.97 5.54 2.14 19.98-3.66 20.78-16.5 2.29-14.47 11.01-23.35 22.47-8.66 11.15-41.59 26.68-54.76 27.25zM1298.84 473.8c10.18-2.24 2.39-.69 5.9-4.63 2.76 1.75 2.3 1.89 5.31 2.37l1.02-1.96-1.39-4.02.86-1.55c3.73-.4 6.28-1.01 9.88.02.99 5.99-1.63.03-1.99 5.52 3.36 0 3.37.52 5.98-.9-2.66-2.96-2.14-1.34-2.44-4.67-.3.22 17.53-5.47 18.48-5.69 3.2.46 3.53 2.45 5.88 4.04 8.22 5.58 104.53-27.75 118.4-33.19 13.34-5.23 33.62-16.24 46.67-18.91 2.7-.56 5.33.26 7.42 2.06 2.36 2.04 3.52 4.21 3.5 7.36-.03 4.72-7.83 29.63-11.15 32.71 2.51-10.49 14.17-33.1 3.67-39.63-2.69-.32-5.72-.27-8.2.84a960 960 0 0 1-50.09 20.64c-49.82 18.97-100.86 30.79-153.25 40.07zm-183.72 223.52c15.32-1.5 29.75 1 41.52 11.3 23.56 20.62 25.99 51.21 5.13 74.5-21.96 24.53-45.22 46.45-68.96 68.72a4483 4483 0 0 0-99.5 94.76 2154 2154 0 0 0-91.65 96.07c-28.85 32.25-56.74 65.57-85.76 97.64-5.92 6.28-23.5 28.25-32.14 24.15-5.07-7.91-2.75-17.67-1.33-26.41 5.88-36.09 27.23-65.15 46.85-94.92a7635 7635 0 0 1 59.12-88.32 9601 9601 0 0 0 59.82-90.22c36.46-55.9 96.3-155.97 166.9-167.27"/><path fill="url(#b)" d="m1298.84 473.8-2.35-.42c.53-1.75.47-1.67.7-3.47-2.33-2.67-.88-1.6-5.03-2.48-7.67-13.06 21.86-27.27 29.92-33.82 10.01-8.12 22.21-20.92 32.6-27.82 11.07-7.36 19.39-1.54 23.39-20.05-2.53-1.61-5.03-3.64-7.42-5.48a864 864 0 0 0 2.91-48.69l10.92-9.4 2 1.65c3.07-4.3.13-6.98 3.78-11.66 5.09-1.63 2.53 2.34 7.58 2.19 6.59-7.27 15.15-22 18.82-31.29-2.51-7.78-13.91-5.57-18.39-13.11-3.71-6.24-1.75-15.03-.02-21.62 2.11-8.08 5.41-10.67 12.65-14.7 8.06-4.5 31.38-32.67 40.04-41.65-.4-3.47-2.69-.25-6.01-4.1l1.27-2.16c6.92-2.96 6.03-4.87 13.53-5.03l.3-2.23c2.72-.69 3.15-.27 6.06.2.46 2.91-5.32 4.01-8.51 9.14 2.7.49 3.49-.64 6.58-2.16 3.03.36 3.37.84 6.25-.32 3.08 1.36 25.5-5.68 30.77-6.94 8.15-1.93 10.39 3.65 17.44-.09 2.26-2.78 2.59-2.77 3.18-6.38-1.62-2.69-.62-1.48-3.82-3.07-7.06 2.5-27.78 2.37-31.72-4.9 23.26-2.94 68.67 10.61 92.21 16.42 10.03 2.47 19.27 9.37 30.75 9.9 114.56 46.88 195.1 163.82 197.57 288.13.27 13.7.18 27.48.23 41.2l.16 104.39.19 326.37.03 355.15-.09 111.09c0 60.61.39 100.61-21.9 159.9-45.61 121.3-159.78 198.62-286.78 211.3-16.43 1.64-38.42.48-55.37.48l-98.53-.02-312.15.04-297.17.1-93.65.01c-16.65-.01-38.95.55-55.01-.76a349 349 0 0 1-106.28-25.71c-30.58-12.71-69.32-34.32-93.09-56.56-10.56-9.89-43.65-42.05-49.63-53.68-1.26-6.6-28.76-45.06-29.97-56.27l1.86-.2c1.86 1.14 6.02 4.22 7.5 2.08 6.01-8.71-3.44-11.81 5.14-20.73l2.84.62-1.02-1.23-.78.02c3.18 1.78 1.83.75 2.35 5.07 1.72 2.06 14.64 4.84 17.95 5.46l1.86-4.58c5.4 9.28 17.47 2.7 23.3 11.4l-.45 1.96c3.47 4.39 15.1 10.51 20.02 13.64 5.83 3.7 8.81 3.02 15.34 1.26 5.1-4.71 13.56-11.99 16.81-17.73.49-5.95-8.22-10.34-2.02-17.8 7.06-8.49 16.95-20.88 27.45-24.76 4.33-1.59 10.04 3.39 13.34 5.84 3.5-.01 1.87.44 4.96-1.74 2.02-4 .2-7.75.77-13.72 2.2-2.25.88-1.64 4.17-1.72l.64 1 1.08 1.64a48 48 0 0 0 4.37 6.03c2.25 2.73 11.01 4.29 13.21 3.36 9.02-3.83 19.67-18.48 27.62-24.82 7.16-5.71 14.15-9.61 20.19-15.92 1.44-1.51.78-1.32 3.2-3.39l1-.03c14.5-.42 12.8-4.29 22.44-13.15 3.8-3.5 10.56-2.09 16.16-8.95 9.93-.08 12.9-.57 22.43-2.7 13.17-.57 46.1-16.1 54.76-27.25 8.88-11.46 6.86-20.18 23.35-22.47 5.8-.8 1.69-15.24 3.66-20.78 4.9-13.75 19.1-28.07 24.86-40.42 12.34-4.03 11.42-19.93 20.47-22.66 3.24 1.02 3.26 1.11 6.6 1.24 5.62-3.82 24.26-27.42 25.25-35 .5-3.91-2.03-12.38-.24-18.17a79 79 0 0 0 7.14-9.17l.84.01c4.6 5.16 8.52 5.18 14.83 2.55 3.76-4.5 3.95-10.19 4.55-15.89 12.14 1.08 23.42 7.3 36.79 5.38 12.25 1.05 24.98 3.78 37.6 4.76 55.96 4.94 108.72-.33 162.47-15.99 125.55-36.57 223.93-128.58 288.53-240.04 2.32-4 3.99-8.02 2.62-12.58-1.69-1.45-3.91-3.57-6.4-3.08-23.43 4.64-44.66 9.86-68.76 11.71-41.22 3.17-82.35 3.62-122.96-5.87-12.96-3.03-36.84-12.55-29.89-31.51 17.41-34.85 79.72-30.87 112.89-36.03 21.43-3.33 41.83-2.76 63.11-7 79.93-10.08 137.08-48.1 168.12-124.17 15.37-37.67 18.6-68.9 26.13-109.06q7.15-37.18 13.83-74.47c10.4-61.26 20.11-123.97 39.51-183.3 3.32-3.09 11.12-28 11.15-32.72.02-3.15-1.14-5.32-3.5-7.36a8.6 8.6 0 0 0-7.42-2.06c-13.05 2.67-33.33 13.68-46.67 18.91-13.87 5.44-110.18 38.77-118.4 33.2-2.35-1.6-2.68-3.6-5.88-4.04-.95.2-18.78 5.9-18.48 5.68.3 3.33-.22 1.7 2.44 4.68-2.61 1.41-2.62.9-5.98.89.36-5.49 2.98.47 1.99-5.52-3.6-1.03-6.15-.43-9.88-.02l-.86 1.55 1.39 4.02-1.02 1.96c-3.01-.48-2.55-.62-5.31-2.37-3.51 3.94 4.28 2.39-5.9 4.63"/><path fill="#0073fd" d="M1593.5 189c2.92.87 5.84 1.42 8.83 2.04 1.54 2.36 1.21 1.1.63 3.94-3.08.68-3.12.98-6.04.05-2.39-2.66-2.25-2.8-3.42-6.04m-22.35-7.91c4.21 2.4 3.74.25 7.61 2.59l-.19 1.88c-4.66-.43-4.81 1.12-7.48-.99z"/></svg>