<?xml version="1.0" standalone="no"?><!DOCTYPE svg PUBLIC "-//W3C//DTD SVG 1.1//EN" "http://www.w3.org/Graphics/SVG/1.1/DTD/svg11.dtd"><svg t="1759135651882" class="icon" viewBox="0 0 1024 1024" version="1.1" xmlns="http://www.w3.org/2000/svg" p-id="38675" xmlns:xlink="http://www.w3.org/1999/xlink" width="200" height="200"><path d="M513.633 277.267c-181.308 0-328.306 149.329-328.306 333.542 0 184.21 146.999 333.539 328.306 333.539 181.36 0 328.338-149.329 328.338-333.539 0-184.213-146.974-333.542-328.338-333.542z m168.846 303.781l-64.732 64.108 15.271 90.519c5.139 30.388-11.955 43.678-39.342 29.052l-80.037-42.745-79.997 42.745c-26.854 14.345-44.582 1.947-39.351-29.052l15.281-90.519-64.729-64.108c-21.737-21.516-15.6-42.455 15.039-46.984l89.454-13.209 40.003-82.345c13.431-27.658 34.957-28.207 48.647 0l40.016 82.345 89.451 13.209c30.022 4.431 37.189 25.046 15.026 46.984zM820.57 84.981H617.566c-10.964 0-19.736 7.781-22.317 18.097l-62.573 125.355s133.988 8.203 213.146 85.619l93.464-191.596c2.77-3.929 4.749-8.461 4.749-13.652 0-13.158-10.514-23.823-23.465-23.823zM491.322 228.439L428.75 103.083c-2.581-10.321-11.375-18.098-22.318-18.098H203.418c-12.952 0-23.453 10.66-23.453 23.824 0 5.191 1.969 9.729 4.75 13.652l93.463 191.598c79.154-77.422 213.144-85.62 213.144-85.62z" fill="#e6e6e6" p-id="38676"></path><path d="M185.327 610.809c0 178.329 137.763 323.964 311.049 333.082l40.01-209.761-22.747-12.148-79.997 42.745c-26.854 14.345-44.582 1.947-39.351-29.052l15.281-90.519-64.729-64.108c-21.737-21.516-15.6-42.455 15.039-46.984l89.454-13.209 40.003-82.345c13.431-27.658 34.957-28.207 48.647 0l39.347 80.966 42.777-224.27c-33.39-11.621-69.204-17.939-106.477-17.939-181.308 0-328.306 149.329-328.306 333.542zM278.178 314.059c79.154-77.422 213.144-85.62 213.144-85.62L428.75 103.083c-2.581-10.321-11.375-18.098-22.318-18.098H203.418c-12.952 0-23.453 10.66-23.453 23.824 0 5.191 1.969 9.729 4.75 13.652l93.463 191.598zM595.249 103.078l-62.573 125.355s43.986 2.7 96.44 19.559L660.21 84.981h-42.644c-10.963 0-19.736 7.781-22.317 18.097z" fill="#e6e6e6" p-id="38677"></path></svg>